<svg xmlns="http://www.w3.org/2000/svg" fill="none" viewBox="0 29 512 453.14"><g clip-path="url(#prefix__clip0_5_3)"><path d="M241.221 294.851l-163.29-101.13v167.798c0 9.548 5.059 18.445 13.44 23.636l149.85 92.807c8.986 5.566 20.555 5.566 29.541 0l149.849-92.807c8.381-5.19 13.441-14.088 13.441-23.636V193.721l-163.29 101.13c-8.986 5.566-20.555 5.566-29.541 0z" fill="url(#prefix__paint0_linear_5_3)"/><path d="M255.991 304.001l-178.06-110.28v167.798c0 9.548 5.059 18.445 13.44 23.636l149.85 92.807c8.986 5.566 20.555 5.566 29.541 0l149.849-92.807c8.381-5.19 13.441-14.088 13.441-23.636V193.721l-178.061 110.28z" fill="url(#prefix__paint1_linear_5_3)"/><path d="M255.991 304.001l-178.06-110.28v167.798c0 9.548 5.059 18.445 13.44 23.636l149.85 92.807c8.986 5.566 20.555 5.566 29.541 0l149.849-92.807c8.381-5.19 13.441-14.088 13.441-23.636V193.721l-178.061 110.28z" fill="url(#prefix__paint2_linear_5_3)"/><path d="M434.05 193.719v167.803c0 9.542-5.053 18.441-13.436 23.629l-149.846 92.81a27.46 27.46 0 01-4.908 2.391L77.935 300.684V193.719L255.99 303.998 434.05 193.719z" fill="url(#prefix__paint3_linear_5_3)"/><path d="M270.762 477.961l149.849-92.806c8.381-5.191 13.441-14.088 13.441-23.636V193.721l-178.061 110.28v178.136c5.14 0 10.277-1.391 14.771-4.176z" fill="url(#prefix__paint4_linear_5_3)"/><path d="M420.611 385.155c8.383-5.19 13.442-14.086 13.442-23.635V193.721l-178.062 110.28 116.231 111.123 48.389-29.969z" fill="url(#prefix__paint5_linear_5_3)"/><path d="M507.411 148.287l-73.359 45.434L255.991 83.442l72.166-44.695c8.633-5.345 19.744-5.345 28.377 0l150.879 93.444c6.101 3.78 6.101 12.316-.002 16.096z" fill="url(#prefix__paint6_linear_5_3)"/><path d="M4.572 148.287l73.36 45.434L255.991 83.442l-72.164-44.695c-8.632-5.345-19.745-5.345-28.377 0L4.572 132.191c-6.103 3.78-6.103 12.316 0 16.096z" fill="url(#prefix__paint7_linear_5_3)"/><path d="M434.05 193.719l-148.497 91.977-29.562 18.302L77.935 193.719 255.99 83.442 434.05 193.72z" fill="url(#prefix__paint8_linear_5_3)"/><path d="M434.05 193.719l-148.497 91.977-29.562 18.302L77.935 193.719 255.99 83.442 434.05 193.72z" fill="url(#prefix__paint9_linear_5_3)"/><path d="M245.319 273.997l-18.886 11.695 29.558 18.309 29.56-18.309-18.886-11.695c-6.493-4.022-14.853-4.022-21.346 0z" fill="url(#prefix__paint10_linear_5_3)"/><path d="M434.05 193.719l-148.496 91.976-18.885-11.706a20.428 20.428 0 00-10.676-3.006V83.439L434.05 193.72z" fill="url(#prefix__paint11_linear_5_3)"/><path d="M318.99 270.728l106.71-66.092-106.71-102.02v168.112z" fill="url(#prefix__paint12_linear_5_3)"/><path d="M4.572 239.155l73.36-45.434 178.059 110.28-72.164 44.693c-8.632 5.346-19.745 5.346-28.377 0L4.572 255.249c-6.103-3.779-6.103-12.316 0-16.094z" fill="url(#prefix__paint13_linear_5_3)"/><path d="M507.411 239.155l-73.359-45.434-178.061 110.28 72.166 44.693c8.633 5.346 19.744 5.346 28.377 0l150.879-93.445c6.101-3.779 6.101-12.316-.002-16.094z" fill="url(#prefix__paint14_linear_5_3)"/><path d="M270.762 477.961l149.849-92.806c8.381-5.191 13.441-14.088 13.441-23.636V193.721l-178.061 110.28v178.136c5.14 0 10.277-1.391 14.771-4.176z" fill="url(#prefix__paint15_linear_5_3)"/><path d="M270.762 477.961l149.849-92.806c8.381-5.191 13.441-14.088 13.441-23.636V193.721l-178.061 110.28v178.136c5.14 0 10.277-1.391 14.771-4.176z" fill="url(#prefix__paint16_linear_5_3)"/><path d="M434.05 193.719v167.803c0 9.542-5.053 18.441-13.436 23.629l-149.846 92.81a27.46 27.46 0 01-4.908 2.391L77.935 300.684V193.719L255.99 303.998 434.05 193.719z" fill="url(#prefix__paint17_linear_5_3)"/><path d="M191.393 29.002c-74.399 0-132.398 44.838-132.398 100.575 0 52.584 53.299 86.14 135.897 84.516l2.5-.097 9.1-.286-2.299 5.736.3.573a61.972 61.972 0 011.799 4.494l.2.574.3.956.401 1.338.3.861.399.956.3 1.051.401 1.531.499 1.624.301 1.052.499 1.721.5 1.817.401 1.815.499 1.912.401 1.34.5 2.103.499 2.104.7 2.868.3 1.529.501 2.295.5 2.39.6 2.485.699 3.538.6 2.868.8 4.016.401 2.007.699 3.154.6 3.251.8 4.398.901 4.59.798 4.78.902 4.875.899 4.972.9 5.163.899 5.353.701 4.111.864 5.681-4.393-.643-11.646 9.684c-25.356-26.33 58.246-28.136 58.246-28.136l34.227 16.721s32.301 1.57 67.9-35.621l1.1-1.147-5.1-18.165-13.5-48.28-8.399-30.02-7.401-26.388-4.599-16.061-2.901-10.135-1.699-6.118-1.601-5.354-.6-2.294-.399-1.242-.2-.67-.201-.574c-7.799-23.996-22.899-45.22-43.499-60.614-24.2-18.068-54.898-27.533-90.698-27.533z" fill="url(#prefix__paint18_linear_5_3)"/><path d="M209.993 68.199c4.243 0 8.312 1.612 11.314 4.482 3 2.868 4.685 6.759 4.685 10.815 0 4.058-1.685 7.948-4.685 10.817-3.002 2.868-7.071 4.48-11.314 4.48s-8.313-1.612-11.314-4.48c-3-2.87-4.686-6.759-4.686-10.817 0-4.056 1.686-7.947 4.686-10.815 3.001-2.87 7.071-4.482 11.314-4.482z" fill="#000" fill-opacity=".8"/><path d="M507.411 238.876l-73.359-45.434L255.991 303.72l72.166 44.693c8.633 5.348 19.744 5.348 28.377 0l150.879-93.444c6.101-3.778 6.101-12.315-.002-16.093z" fill="url(#prefix__paint19_linear_5_3)"/><path d="M4.572 239.155l73.36-45.434 178.059 110.28-72.164 44.693c-8.632 5.346-19.745 5.346-28.377 0L4.572 255.249c-6.103-3.779-6.103-12.316 0-16.094z" fill="url(#prefix__paint20_linear_5_3)"/></g><defs><linearGradient id="prefix__paint0_linear_5_3" x1="255.989" y1="193.719" x2="255.989" y2="482.133" gradientUnits="userSpaceOnUse"><stop stop-color="#EEF4FF"/><stop offset="1" stop-color="#CFE7FD"/></linearGradient><linearGradient id="prefix__paint1_linear_5_3" x1="255.989" y1="193.719" x2="255.989" y2="482.133" gradientUnits="userSpaceOnUse"><stop stop-color="#EEF4FF"/><stop offset="1" stop-color="#CFE7FD"/></linearGradient><linearGradient id="prefix__paint2_linear_5_3" x1="255.989" y1="193.719" x2="255.989" y2="482.133" gradientUnits="userSpaceOnUse"><stop stop-color="#EEF4FF"/><stop offset="1" stop-color="#CFE7FD"/></linearGradient><linearGradient id="prefix__paint3_linear_5_3" x1="374.972" y1="360.953" x2="239.712" y2="219.477" gradientUnits="userSpaceOnUse"><stop stop-color="#8AAADC" stop-opacity="0"/><stop offset="1" stop-color="#8AAADC"/></linearGradient><linearGradient id="prefix__paint4_linear_5_3" x1="345.019" y1="-14.001" x2="345.019" y2="522.746" gradientUnits="userSpaceOnUse"><stop stop-color="#fff" stop-opacity="0"/><stop offset=".27" stop-color="#DCE6F5" stop-opacity=".27"/><stop offset=".764" stop-color="#A1BBE3" stop-opacity=".764"/><stop offset="1" stop-color="#8AAADC"/></linearGradient><linearGradient id="prefix__paint5_linear_5_3" x1="532.234" y1="427.846" x2="352.197" y2="239.535" gradientUnits="userSpaceOnUse"><stop stop-color="#8AAADC" stop-opacity="0"/><stop offset="1" stop-color="#8AAADC"/></linearGradient><linearGradient id="prefix__paint6_linear_5_3" x1="408.112" y1="145.494" x2="437.001" y2="191.476" gradientUnits="userSpaceOnUse"><stop stop-color="#EEF4FF"/><stop offset="1" stop-color="#CFE7FD"/></linearGradient><linearGradient id="prefix__paint7_linear_5_3" x1="120.156" y1="102.634" x2="152.259" y2="150.698" gradientUnits="userSpaceOnUse"><stop stop-color="#EEF4FF"/><stop offset="1" stop-color="#CFE7FD"/></linearGradient><linearGradient id="prefix__paint8_linear_5_3" x1="-2.053" y1="-52.986" x2="252.749" y2="213.529" gradientUnits="userSpaceOnUse"><stop stop-color="#EEF4FF"/><stop offset="1" stop-color="#CFE7FD"/></linearGradient><linearGradient id="prefix__paint9_linear_5_3" x1="16.057" y1="193.718" x2="145.278" y2="193.718" gradientUnits="userSpaceOnUse"><stop stop-color="#8AAADC" stop-opacity="0"/><stop offset="1" stop-color="#8AAADC"/></linearGradient><linearGradient id="prefix__paint10_linear_5_3" x1="255.989" y1="201.951" x2="255.989" y2="330.96" gradientUnits="userSpaceOnUse"><stop stop-color="#8AAADC" stop-opacity="0"/><stop offset="1" stop-color="#8AAADC"/></linearGradient><linearGradient id="prefix__paint11_linear_5_3" x1="345.017" y1="-79.471" x2="345.017" y2="292.678" gradientUnits="userSpaceOnUse"><stop stop-color="#fff" stop-opacity="0"/><stop offset=".27" stop-color="#DCE6F5" stop-opacity=".27"/><stop offset=".764" stop-color="#A1BBE3" stop-opacity=".764"/><stop offset="1" stop-color="#8AAADC"/></linearGradient><linearGradient id="prefix__paint12_linear_5_3" x1="374.536" y1="158.151" x2="321.442" y2="187.975" gradientUnits="userSpaceOnUse"><stop stop-color="#8AAADC" stop-opacity="0"/><stop offset="1" stop-color="#8AAADC"/></linearGradient><linearGradient id="prefix__paint13_linear_5_3" x1="156.997" y1="316.111" x2="180.304" y2="350.374" gradientUnits="userSpaceOnUse"><stop stop-color="#EEF4FF"/><stop offset="1" stop-color="#CFE7FD"/></linearGradient><linearGradient id="prefix__paint14_linear_5_3" x1="390.88" y1="283.687" x2="411.64" y2="315.271" gradientUnits="userSpaceOnUse"><stop stop-color="#EEF4FF"/><stop offset="1" stop-color="#CFE7FD"/></linearGradient><linearGradient id="prefix__paint15_linear_5_3" x1="345.019" y1="-14.001" x2="345.019" y2="522.746" gradientUnits="userSpaceOnUse"><stop stop-color="#fff" stop-opacity="0"/><stop offset=".27" stop-color="#DCE6F5" stop-opacity=".27"/><stop offset=".764" stop-color="#A1BBE3" stop-opacity=".764"/><stop offset="1" stop-color="#8AAADC"/></linearGradient><linearGradient id="prefix__paint16_linear_5_3" x1="345.019" y1="-14.001" x2="345.019" y2="522.746" gradientUnits="userSpaceOnUse"><stop stop-color="#fff" stop-opacity="0"/><stop offset=".27" stop-color="#DCE6F5" stop-opacity=".27"/><stop offset=".764" stop-color="#A1BBE3" stop-opacity=".764"/><stop offset="1" stop-color="#8AAADC"/></linearGradient><linearGradient id="prefix__paint17_linear_5_3" x1="374.972" y1="360.953" x2="239.712" y2="219.477" gradientUnits="userSpaceOnUse"><stop stop-color="#8AAADC" stop-opacity="0"/><stop offset="1" stop-color="#8AAADC"/></linearGradient><linearGradient id="prefix__paint18_linear_5_3" x1="215.59" y1="29.002" x2="215.59" y2="353.195" gradientUnits="userSpaceOnUse"><stop stop-color="#54F990"/><stop offset="1" stop-color="#136333"/></linearGradient><linearGradient id="prefix__paint19_linear_5_3" x1="390.88" y1="283.408" x2="411.64" y2="314.992" gradientUnits="userSpaceOnUse"><stop stop-color="#EEF4FF"/><stop offset="1" stop-color="#CFE7FD"/></linearGradient><linearGradient id="prefix__paint20_linear_5_3" x1="156.997" y1="316.111" x2="180.304" y2="350.374" gradientUnits="userSpaceOnUse"><stop stop-color="#EEF4FF"/><stop offset="1" stop-color="#CFE7FD"/></linearGradient><clipPath id="prefix__clip0_5_3"><path fill="#fff" transform="translate(0 29)" d="M0 0h512v453.138H0z"/></clipPath></defs></svg>
